# Blender v2.79 (sub 0) OBJ File: 'Low poly Trunk.blend'
# www.blender.org
mtllib Low poly Trunk.mtl
o Circle
v -0.000000 0.000000 -0.386716
v -0.334906 0.000000 0.193358
v 0.000000 0.000000 0.386716
v 0.334906 0.000000 0.193358
v 0.334906 0.000000 -0.193358
v -0.323009 0.234122 -0.186489
v 0.000000 0.234122 -0.372978
v -0.323009 0.234122 0.186489
v 0.000000 0.234122 0.372978
v 0.323009 0.234122 0.186489
v 0.323009 0.234122 -0.186489
v -0.296824 0.486911 -0.171467
v -0.010202 0.512697 -0.339107
v -0.296824 0.522576 0.171467
v -0.011796 0.544933 0.335919
v 0.296824 0.536968 0.171466
v 0.296824 0.489271 -0.171466
v 0.391303 0.000000 -0.133407
v 0.391303 0.000000 0.133407
v 0.391303 0.130371 -0.116708
v 0.391303 0.130371 0.116708
v 0.566339 0.000801 -0.066632
v 0.566339 0.000801 0.066632
v 0.522176 0.044149 -0.059085
v 0.522176 0.044149 0.057498
v -0.171881 0.001869 0.436884
v -0.358148 -0.000765 0.289867
v -0.172694 0.088968 0.436355
v -0.358962 0.086334 0.289338
v -0.331759 0.001152 -0.320024
v -0.125147 0.001288 -0.418225
v -0.328322 0.109260 -0.300921
v -0.125147 0.109260 -0.418225
v -0.347315 -0.002184 -0.486024
v -0.275954 -0.002184 -0.527224
v -0.333988 0.035738 -0.458418
v -0.262627 0.035738 -0.499618
v -0.376814 -0.001762 0.459389
v -0.434053 0.001233 0.387079
v -0.344448 0.033326 0.439399
v -0.010202 0.512697 -0.291902
v -0.255966 0.521216 0.147864
v -0.011796 0.544933 0.288714
v 0.255966 0.538328 0.147864
v 0.255966 0.490631 -0.147864
v -0.256485 0.480865 -0.148101
v -0.001524 0.466900 -0.295727
v -0.257490 0.475420 0.147864
v -0.001524 0.466900 0.295727
v 0.254441 0.458381 0.147864
v 0.254441 0.458381 -0.147864
v 0.000000 0.450324 0.349660
v 0.035540 0.511514 0.322403
v 0.026479 0.511815 0.280431
v 0.018819 0.501860 -0.332062
v -0.000000 0.483857 -0.346043
v 0.012606 0.502067 -0.288445
v 0.187895 0.458931 -0.238337
v 0.110058 0.472608 -0.282166
v 0.090237 0.412287 -0.300464
v 0.184532 0.375600 -0.249726
v 0.210409 0.489254 -0.299029
v 0.144759 0.498165 -0.329416
v 0.139847 0.457333 -0.363315
v 0.223096 0.432982 -0.334830
v 0.217807 0.551933 -0.354387
v 0.181478 0.554393 -0.368875
v 0.182864 0.541264 -0.394308
v 0.230220 0.533978 -0.383644
vn 0.4997 0.0990 -0.8605
vn -0.0065 -0.9999 -0.0151
vn -0.7883 -0.0111 -0.6152
vn 0.5019 0.0229 0.8646
vn 0.9327 -0.0580 0.3559
vn -0.0008 -1.0000 -0.0005
vn 0.9956 0.0934 -0.0062
vn 0.4994 0.0508 0.8649
vn -0.9990 0.0451 -0.0035
vn 0.7457 0.0672 0.6629
vn -0.9636 0.0271 -0.2659
vn -0.3876 0.6317 -0.6713
vn 0.4994 0.0508 -0.8649
vn 0.0329 0.9885 -0.1476
vn -0.4979 0.0871 0.8629
vn -0.5009 0.0943 -0.8603
vn 0.4954 0.0898 0.8640
vn -0.9953 0.0963 -0.0048
vn 0.4260 0.2381 0.8729
vn 0.8353 0.5498 0.0000
vn 0.0000 -1.0000 0.0000
vn 0.7457 0.0672 -0.6629
vn 0.7005 0.7137 0.0000
vn 0.0046 -1.0000 0.0000
vn 0.4210 0.2295 -0.8776
vn 0.5502 0.8351 0.0000
vn -0.3563 0.8696 0.3417
vn -0.4165 0.6546 0.6309
vn 0.0001 -1.0000 0.0076
vn 0.2965 0.0431 0.9541
vn -0.9940 0.1009 0.0412
vn 0.2755 0.0386 -0.9605
vn -0.3893 0.6276 -0.6742
vn -0.9995 0.0292 0.0146
vn 0.0099 -0.9998 0.0188
vn 0.5268 0.1113 -0.8427
vn -0.2335 0.8843 -0.4044
vn 0.0426 0.1548 0.9870
vn -0.5198 0.7312 0.4418
vn 0.0035 -1.0000 -0.0055
vn -0.0568 0.9970 -0.0519
vn 0.9994 -0.0333 0.0028
vn -0.0432 0.9930 0.1098
vn 0.0424 0.9991 0.0064
vn 0.0899 0.9890 -0.1177
vn -0.9996 0.0272 -0.0022
vn 0.5002 -0.0137 -0.8658
vn -0.4994 0.0224 0.8661
vn -0.0631 0.9953 0.0732
vn -0.5005 0.0123 -0.8656
vn 0.1629 -0.4278 -0.8891
vn 0.5039 0.0991 -0.8581
vn -0.8332 0.4005 -0.3813
vn -0.0225 -0.8157 -0.5781
vn -0.0781 0.9016 0.4254
vn -0.2406 0.6581 0.7134
vn 0.9588 0.0871 0.2705
vn -0.8882 0.3650 -0.2792
vn 0.0386 0.9992 0.0031
vn 0.9918 0.1275 0.0059
vn -0.8077 0.5589 0.1875
vn -0.8538 0.5201 0.0224
vn 0.9698 0.2372 0.0564
vn 0.2322 0.8696 -0.4357
usemtl Wood
s off
f 60//1 61//1 58//1 17//1 11//1 7//1 56//1
f 30//2 31//2 1//2
f 27//3 39//3 29//3
f 41//4 46//4 47//4
f 65//5 62//5 58//5 61//5
f 2//6 30//6 1//6 5//6 4//6 3//6
f 17//7 16//7 10//7 11//7
f 10//8 9//8 3//8 4//8
f 6//9 30//9 2//9 8//9
f 21//10 10//10 4//10 19//10
f 29//11 8//11 2//11 27//11
f 33//12 32//12 6//12 7//12
f 11//13 5//13 1//13 7//13
f 45//14 44//14 16//14 17//14
f 52//15 15//15 14//15 8//15 9//15
f 6//16 12//16 13//16 56//16 7//16
f 53//17 52//17 9//17 10//17 16//17
f 12//18 6//18 8//18 14//18
f 25//19 21//19 19//19 23//19
f 20//20 11//20 10//20 21//20
f 19//21 4//21 5//21 18//21
f 20//22 18//22 5//22 11//22
f 25//23 23//23 22//23 24//23
f 23//24 19//24 18//24 22//24
f 24//25 22//25 18//25 20//25
f 25//26 24//26 20//26 21//26
f 40//27 28//27 29//27 39//27
f 28//28 9//28 8//28 29//28
f 26//29 27//29 2//29 3//29
f 28//30 26//30 3//30 9//30
f 36//31 34//31 30//31 32//31
f 33//32 7//32 1//32 31//32
f 37//33 35//33 34//33 36//33
f 30//34 6//34 32//34
f 34//35 35//35 31//35 30//35
f 37//36 33//36 31//36 35//36
f 37//37 36//37 32//37 33//37
f 40//38 38//38 26//38 28//38
f 38//39 40//39 39//39
f 38//40 39//40 27//40 26//40
f 43//41 42//41 14//41 15//41
f 46//42 42//42 48//42
f 41//43 13//43 12//43 46//43
f 45//44 17//44 55//44 57//44
f 42//45 46//45 12//45 14//45
f 50//46 44//46 45//46 51//46
f 48//47 42//47 43//47 49//47
f 51//48 45//48 57//48 47//48
f 44//49 54//49 53//49 16//49
f 50//50 49//50 54//50 44//50
f 69//51 65//51 64//51 68//51
f 59//52 60//52 56//52 55//52 17//52 58//52
f 64//53 60//53 59//53 63//53
f 65//54 61//54 60//54 64//54
f 62//55 63//55 59//55 58//55
f 66//56 67//56 63//56 62//56
f 69//57 66//57 62//57 65//57
f 68//58 64//58 63//58 67//58
usemtl Wood_light
f 50//59 51//59 47//59 46//59 48//59 49//59
f 15//60 52//60 49//60 43//60
f 53//61 54//61 49//61 52//61
f 55//62 56//62 47//62 57//62
f 56//63 13//63 41//63 47//63
f 69//64 68//64 67//64 66//64
